inDegrees=no
num_controls=7
num_derivatives=13
num_iterations=96
num_multipliers=7
num_parameters=0
num_slacks=7
num_states=26
objective=0.478041
objective_accelerations=0.043737
objective_balance=0.003487
objective_effort=0.039809
objective_height=0.385313
objective_ligament=0.005697
solver_duration=1300.424058
status=Solve_Succeeded
success=true
DataType=double
version=3
OpenSimVersion=4.5
endheader
time	/jointset/ground_pelvis/pelvis_tilt/value	/jointset/ground_pelvis/pelvis_tx/value	/jointset/ground_pelvis/pelvis_ty/value	/jointset/hip_l/hip_flexion_l/value	/jointset/hip_l/hip_adduction_l/value	/jointset/hip_l/hip_rotation_l/value	/jointset/back/lumbar_extension/value	/jointset/patellofemoral_l/patellar_flexion_l/value	/jointset/knee_l/knee_flexion_l/value	/jointset/knee_l/knee_adduction_l/value	/jointset/knee_l/knee_rotation_l/value	/jointset/ankle_l/ankle_angle_l/value	/jointset/subtalar_l/subtalar_angle_l/value	/jointset/ground_pelvis/pelvis_tilt/speed	/jointset/ground_pelvis/pelvis_tx/speed	/jointset/ground_pelvis/pelvis_ty/speed	/jointset/hip_l/hip_flexion_l/speed	/jointset/hip_l/hip_adduction_l/speed	/jointset/hip_l/hip_rotation_l/speed	/jointset/back/lumbar_extension/speed	/jointset/patellofemoral_l/patellar_flexion_l/speed	/jointset/knee_l/knee_flexion_l/speed	/jointset/knee_l/knee_adduction_l/speed	/jointset/knee_l/knee_rotation_l/speed	/jointset/ankle_l/ankle_angle_l/speed	/jointset/subtalar_l/subtalar_angle_l/speed	/forceset/tau_hip_flexion_l	/forceset/tau_hip_adduction_l	/forceset/tau_hip_rotation_l	/forceset/tau_knee_flexion_l	/forceset/tau_ankle_angle_l	/forceset/tau_subtalar_angle_l	/forceset/tau_lumbar_extension	lambda_cid13_p0	lambda_cid13_p1	lambda_cid13_p2	lambda_cid13_p3	lambda_cid13_p4	lambda_cid13_p5	lambda_cid14_p0	/jointset/ground_pelvis/pelvis_tilt/accel	/jointset/ground_pelvis/pelvis_tx/accel	/jointset/ground_pelvis/pelvis_ty/accel	/jointset/hip_l/hip_flexion_l/accel	/jointset/hip_l/hip_adduction_l/accel	/jointset/hip_l/hip_rotation_l/accel	/jointset/back/lumbar_extension/accel	/jointset/patellofemoral_l/patellar_flexion_l/accel	/jointset/knee_l/knee_flexion_l/accel	/jointset/knee_l/knee_adduction_l/accel	/jointset/knee_l/knee_rotation_l/accel	/jointset/ankle_l/ankle_angle_l/accel	/jointset/subtalar_l/subtalar_angle_l/accel	gamma_cid13_p0	gamma_cid13_p1	gamma_cid13_p2	gamma_cid13_p3	gamma_cid13_p4	gamma_cid13_p5	gamma_cid14_p0
1.5	0.02161012348480335	-0.005932233008536215	0.855827896749487	0.6465186765371977	-0.3240619754886597	-0.1327398563701326	-0.7925509407700043	0.7722425856502058	0.7722425856502273	-0.1078482692278476	-0.1745301357744946	0.1610358341032831	0.02518324724383167	0.2877415466941693	0.2232915670185249	0.409715331312307	-1.919837774697046	0.08841534429749259	-0.6496047953192257	0.8449669215072672	-1.984982616120568	-1.984982616120545	-0.1324034964447402	-2.834089563385429e-06	-0.4745929014671662	-0.06556723131564368	-0.1851959220055681	0.05498758601770009	-0.005226662817089026	-0.2310989096290681	0.0727254889049461	0.01180449406033853	0.2711502529040561	-19.82333355864673	-2.711736556210079	1.184185709650388	-7.212342993901498	-668.7198781287077	-47.86311213653091	-15.48228458760566	-0.05649941219733202	0.6145361116419277	-0.615417536377531	-0.6024005928867066	0.4751960579558164	-0.3179270442939162	1.879781815403557	-0.9622237615555865	-0.9622237615555858	-0.2758036492237865	0.0343367902797069	-0.2852904192764605	0.4584299285703414	1.971130122787291e-07	1.391227952233611e-06	-6.510613634514965e-07	1.071765806441521e-07	2.977958825942966e-07	6.039400959459643e-07	2.240335407755188e-07
1.51	0.02448460775621787	-0.00366882656413434	0.8598934753084442	0.627291987157595	-0.3231547746760017	-0.1392525477774591	-0.7840088955683179	0.7523470552995678	0.7523470552995658	-0.1091866743516917	-0.1745303807511057	0.156276142369108	0.02454975278283473	0.2871174645132784	0.2293621802199899	0.4033155052268027	-1.925241142569276	0.09302192322829676	-0.6528527259189906	0.8633095565280311	-1.993835706188059	-1.993835706188045	-0.1352825720260604	-3.980860973977501e-05	-0.477257096009192	-0.06111325545890265	-0.1780498874439595	0.05328222855820374	-0.005074239140997317	-0.2274438961908543	0.07359312289677511	0.01153886680627022	0.2640906481335122	-19.30241031957445	-2.803844327245147	1.33166674288071	-7.192261535985699	-664.2862534598199	-48.38228924190851	-16.18988318465684	-0.07104068853097377	0.599228109936515	-0.6649401550738088	-0.4704620712729715	0.4527916574388907	-0.3159174541388609	1.791620000117364	-0.8037294683770707	-0.803729468378416	-0.2944445694813404	-0.02181006515669412	-0.243673297642009	0.4413983187452745	1.590368575536517e-07	1.608331460320589e-06	-3.865960346270138e-07	1.533650425631832e-07	2.869660640975613e-07	6.240977915233939e-07	2.082105950406672e-07
1.52	0.02735171559232411	-0.001345533150610272	0.863892520604459	0.6080190326618934	-0.3222016275046768	-0.1457952567680469	-0.7752874008854828	0.7323716184804485	0.7323716184804234	-0.1105539672427278	-0.1745308145713142	0.1514924708243174	0.02396130146130904	0.2862662596325477	0.2352689608429633	0.3964086787238215	-1.929090797916778	0.09760461603094768	-0.6556083119715987	0.8808568177369772	-2.000963909816797	-2.000963909816793	-0.1381810498831884	-4.060280953120324e-05	-0.4793888635902726	-0.05655860342138984	-0.1709038528823506	0.05157687109870873	-0.004921815464906093	-0.2237888827526403	0.07446075688860468	0.01127323955220386	0.2570310433629679	-18.78103942358376	-2.895592437295607	1.47859033007377	-7.204442493336718	-659.8661917035655	-48.92800816473594	-16.88718025007361	-0.1019239521652628	0.5817695959436077	-0.7168176198728857	-0.2916580879409584	0.4704188323251627	-0.2194581348625783	1.720707053039982	-0.6172464738049583	-0.6172464738049581	-0.2796841043853091	0.04157285435670337	-0.1788050270874108	0.4785651647246997	1.340063891617107e-07	1.767824902190202e-06	-2.169998619171339e-07	1.831225035112375e-07	2.872166621416282e-07	6.413103992895191e-07	1.992466054647643e-07
1.53	0.0302092010739167	0.001035933039338048	0.8678200672992684	0.58871525083617	-0.3212027558120472	-0.1523634999277288	-0.7663946570071479	0.7123334153603447	0.712333415360332	-0.1119500715599882	-0.1745313305593222	0.1466900865730897	0.0234189112108512	0.2851913331892696	0.2409888279880626	0.3890245275900521	-1.931403761228096	0.1021642747166037	-0.6579669145985456	0.8975398350509767	-2.006390230109983	-2.006390230109957	-0.1410370207116507	-6.029834718438619e-05	-0.4810025073803175	-0.05190501055187239	-0.163652135707141	0.04966003283599579	-0.004832631922933294	-0.2204165139120884	0.07537643550984692	0.01101391384666887	0.249892646146997	-18.2669844839352	-2.985795534216811	1.62183976787683	-7.127515835834319	-655.7460048975054	-49.5325045607518	-17.57474385776866	-0.1162111373530348	0.5618183013171971	-0.7605726219199568	-0.161852758174861	0.447709386852756	-0.2328615289166441	1.619280638730626	-0.462391527565231	-0.4623915275619171	-0.2878247794669574	-0.02342233046120134	-0.1397596250817599	0.4606303331783376	1.228369624987269e-07	1.866107648703863e-06	-1.482021675790186e-07	1.954220259276289e-07	2.992402027602973e-07	6.553938512561333e-07	1.975702568077443e-07
1.54	0.03305475046168758	0.003473542506242179	0.8716715007303819	0.5693961919162438	-0.3201584935325277	-0.1589530891541412	-0.7573396466420429	0.6922495356932121	0.6922495356932099	-0.1133745898270127	-0.1745319798172267	0.1418741427699377	0.02292343168611114	0.2838790408682332	0.2464976162341256	0.381186025984643	-1.93214621675732	0.1066827334089376	-0.6598775253177286	0.9133101150910047	-2.010099219222762	-2.010099219222714	-0.1438638398357234	-6.725679023247526e-05	-0.4821007739751114	-0.04717645827783207	-0.1564004185319323	0.04774319457328222	-0.004743448380978253	-0.2170441450715359	0.07629211413108909	0.01075458814113334	0.2427542489310257	-17.75061093753923	-3.07543506154781	1.763892047487579	-7.086705833752664	-651.6138332314302	-50.15592102107268	-18.25304824375515	-0.1493971277169476	0.5395538161363357	-0.8076877142008031	0.02244346847763865	0.4621788336607446	-0.1298597533097918	1.538159598245736	-0.2737802377236459	-0.2737802377236447	-0.2738537635073716	0.04412027327773697	-0.07572958803719393	0.4935570456292789	1.133942397229672e-07	1.887686653839772e-06	-1.348128639167818e-07	2.030680694607677e-07	2.912665210414231e-07	6.573879234034563e-07	1.968981753917444e-07
1.55	0.03588586045056056	0.005965132638802172	0.8754423183539694	0.5500778418649367	-0.3190692790412907	-0.1655593050011748	-0.7481313891883168	0.6721373912802511	0.6721373912802303	-0.1148272990599222	-0.1745324671323406	0.1370498954823883	0.0224756252480851	0.2823052519902501	0.2517792157779707	0.3729101191701344	-1.931259958987096	0.1111494708032694	-0.6612920092017096	0.9281792806965994	-2.01203487117461	-2.012034871174599	-0.1466708057376709	-3.003535312344778e-05	-0.4826590216107102	-0.04237459167208892	-0.1492014804451281	0.04578529084678533	-0.004716556531692479	-0.2137868571219924	0.07717486023642978	0.01042745306093159	0.2356933475700587	-17.27056824964125	-3.123835010293712	1.893168487456077	-6.975094688573071	-647.8157525582145	-50.73280645641581	-18.91159574535815	-0.167031517434422	0.5163251728407827	-0.8476004949630965	0.1612854006188155	0.4371299880491484	-0.1360137065448223	1.436980798079354	-0.1092783751981561	-0.10927837520393	-0.2827549524921016	-0.01649957796690303	-0.03236926895322904	0.4747796201862464	1.059409801216176e-07	1.820889609127405e-06	-1.852636625550102e-07	2.053524960197245e-07	2.602525614119024e-07	6.454529274981184e-07	1.973831844925718e-07
1.56	0.03870010020073443	0.008508311196667053	0.8791283652434343	0.5307762680851962	-0.3179357554169647	-0.1721774198871682	-0.7387793029272622	0.6520147262075128	0.6520147262074768	-0.1163078053416393	-0.1745325867644511	0.1322227663349566	0.02207609310654437	0.2805049931284498	0.2568153012951034	0.3642318791601357	-1.928790962443912	0.1155445600267908	-0.6622573331097934	0.9420758765567153	-2.012203351177772	-2.0122033511778	-0.1494232495977652	6.279808210580918e-06	-0.482677145951589	-0.03752159898076917	-0.1420025423583245	0.04382738712028944	-0.00468966468237947	-0.2105295691724507	0.07805760634177054	0.01010031798073075	0.228632446209091	-16.79385361695793	-3.17004900953294	2.020265502742352	-6.881071574755939	-644.0846103137721	-51.33758838297388	-19.54282966134087	-0.194691124480427	0.490451010793845	-0.8881543532988334	0.338991223069633	0.4478491994986588	-0.04002775813030028	1.343645649150008	0.07965415201337538	0.07965415201337464	-0.2629493551367356	0.04393901812277419	0.03229507090681862	0.5037822627446072	9.03327333087636e-08	1.78256772064798e-06	-1.753401117529507e-07	2.112291066952036e-07	2.309474492492255e-07	6.22972125395201e-07	1.920405695451252e-07
1.57	0.04149510637178204	0.01110058189981933	0.8827257099554594	0.5115074294284063	-0.3167585320289717	-0.1788029224012828	-0.7292930540754026	0.6318992517720475	0.6318992517720309	-0.1178153130851025	-0.1745321846905784	0.1273982207129728	0.02172550364200256	0.2784552045329532	0.2615935807137261	0.3551802607374563	-1.924711833739847	0.1198879806523517	-0.6627487763115213	0.955009764926286	-2.010599456485734	-2.010599456485783	-0.1520721953508565	9.472854388379272e-05	-0.4821407516484438	-0.03258696998269889	-0.1348409365502322	0.0416334094346362	-0.004721312324651001	-0.2074870066644773	0.0790342214002412	0.009848426895076052	0.2216880737009695	-16.31055649005243	-3.2484558066478	2.150623304889342	-6.777370479542333	-640.7584686835022	-52.06092807533233	-20.14225574575541	-0.2162904261196981	0.4647731271005723	-0.9221483357457202	0.4820997266395716	0.4255505463877354	-0.03938908077065681	1.243641097527458	0.2445346136434244	0.2445346136402012	-0.2646599686018241	-0.005633106950280633	0.07804521716795931	0.4894255776266221	6.453075248152911e-08	1.779839777459733e-06	-8.994862415053178e-08	2.215959475163357e-07	2.037783964201032e-07	5.873090655453096e-07	1.794134245373362e-07
1.58	0.0442683811170675	0.01373928674109866	0.886230841933459	0.4922873272651701	-0.3155382820242627	-0.1854304766433291	-0.719682390206514	0.6118085717806682	0.6118085717806768	-0.119349068842735	-0.1745302843109913	0.1225817857554504	0.02142448493929912	0.2761587079760396	0.266102128920512	0.3457893323550456	-1.919043663733196	0.1241498833700283	-0.6626676786963149	0.9669588799625314	-2.00724446235992	-2.007244462359991	-0.1546728524322072	0.0003059409499620366	-0.4810550130593152	-0.02760744661309325	-0.1276793307421377	0.03943943174898774	-0.004752959966885789	-0.2044444441565052	0.08001083645871325	0.009596535809426612	0.2147437011928479	-15.83193081355969	-3.322851218771771	2.276694323977802	-6.683993467477451	-637.5186977696105	-52.80510782221881	-20.70541994876663	-0.2440327167638406	0.4365047684265064	-0.956016345245107	0.6567994835869077	0.4315456179217692	0.07448040525652154	1.14669098248496	0.4298740387686274	0.429874038768628	-0.2532916207886197	0.06849175220374884	0.1421639281034853	0.5127611370516687	3.866292525600081e-08	1.748387355637559e-06	-7.297951706211971e-09	2.276559423791225e-07	1.75767543795916e-07	5.417471591964327e-07	1.644004148109303e-07
